<?xml version="1.0" encoding="UTF-8"?>
<svg xmlns="http://www.w3.org/2000/svg" xmlns:xlink="http://www.w3.org/1999/xlink" width="21px" height="21px" viewBox="0 0 21 21" version="1.1">
<g id="surface1">
<path style=" stroke:none;fill-rule:nonzero;fill:rgb(88.627452%,26.274511%,16.078432%);fill-opacity:1;" d="M 10.5 18.964844 L 13.882812 8.550781 L 7.117188 8.550781 Z M 10.5 18.964844 "/>
<path style=" stroke:none;fill-rule:nonzero;fill:rgb(98.823529%,42.745098%,14.901961%);fill-opacity:1;" d="M 10.5 18.964844 L 7.117188 8.550781 L 2.375 8.550781 Z M 10.5 18.964844 "/>
<path style=" stroke:none;fill-rule:nonzero;fill:rgb(98.823529%,63.921571%,14.901961%);fill-opacity:1;" d="M 2.375 8.550781 L 1.347656 11.714844 C 1.253906 12.003906 1.355469 12.320312 1.601562 12.496094 L 10.5 18.964844 Z M 2.375 8.550781 "/>
<path style=" stroke:none;fill-rule:nonzero;fill:rgb(88.627452%,26.274511%,16.078432%);fill-opacity:1;" d="M 2.375 8.550781 L 7.117188 8.550781 L 5.078125 2.277344 C 5.03125 2.136719 4.898438 2.039062 4.746094 2.039062 C 4.59375 2.039062 4.460938 2.136719 4.414062 2.277344 Z M 2.375 8.550781 "/>
<path style=" stroke:none;fill-rule:nonzero;fill:rgb(98.823529%,42.745098%,14.901961%);fill-opacity:1;" d="M 10.5 18.964844 L 13.882812 8.550781 L 18.625 8.550781 Z M 10.5 18.964844 "/>
<path style=" stroke:none;fill-rule:nonzero;fill:rgb(98.823529%,63.921571%,14.901961%);fill-opacity:1;" d="M 18.625 8.550781 L 19.652344 11.714844 C 19.746094 12.003906 19.644531 12.320312 19.398438 12.496094 L 10.5 18.964844 Z M 18.625 8.550781 "/>
<path style=" stroke:none;fill-rule:nonzero;fill:rgb(88.627452%,26.274511%,16.078432%);fill-opacity:1;" d="M 18.625 8.550781 L 13.882812 8.550781 L 15.921875 2.277344 C 15.96875 2.132812 16.101562 2.035156 16.253906 2.035156 C 16.40625 2.035156 16.539062 2.132812 16.585938 2.277344 Z M 18.625 8.550781 "/>
</g>
</svg>
